<svg fill="none" height="79" viewBox="0 0 100 79" width="100" xmlns="http://www.w3.org/2000/svg"><path clip-rule="evenodd" d="m40 19.75v3.95h5c2.76 0 5 1.7696 5 3.95s-2.24 3.95-5 3.95h-5v3.95c0 2.1804-2.24 3.95-5 3.95s-5-1.7696-5-3.95v-3.95h-5c-2.76 0-5-1.7696-5-3.95s2.24-3.95 5-3.95h5v-3.95c0-2.1804 2.24-3.95 5-3.95s5 1.7696 5 3.95zm50 23.7h-20v-15.8h15c2.76 0 5 1.7696 5 3.95zm0 15.8h-3.895c-2.745-2.4095-6.68-3.95-11.105-3.95-1.765 0-3.43.2847-5 .7271v-4.6771h20zm-15 11.85c-2.755 0-5-1.7735-5-3.95s2.245-3.95 5-3.95 5 1.7735 5 3.95-2.245 3.95-5 3.95zm-15-11.85h-12.58c-2.23-6.8019-9.985-11.85-19.295-11.85-5.435 0-10.345 1.7226-13.935 4.5113-1.56 1.2087-4.19.2911-4.19-1.435v-38.6263c0-2.1804 2.24-3.95 5-3.95h40c2.76 0 5 1.7696 5 3.95zm-23.265 7.9c-1.735 2.3503-4.925 3.95-8.61 3.95s-6.875-1.5997-8.61-3.95c-.86-1.1653-1.39-2.5043-1.39-3.95s.53-2.7848 1.39-3.95c1.735-2.3503 4.925-3.95 8.61-3.95s6.875 1.5997 8.61 3.95c.86 1.1652 1.39 2.5043 1.39 3.95s-.53 2.7847-1.39 3.95zm53.265-47.4h-20v-11.85c0-4.36475-4.475-7.9-10-7.9h-50c-5.525 0-10 3.53525-10 7.9v52.2739c0 3.8512 3.95503 6.9761 8.83003 6.9761 2.23497 6.8019 9.98497 11.85 19.29497 11.85s17.06-5.0481 19.295-11.85h12.58c0 6.5452 6.715 11.85 15 11.85s15-5.3048 15-11.85c5.525 0 10-3.5353 10-7.9v-31.6c0-4.3648-4.475-7.9-10-7.9z" fill="#fff" fill-rule="evenodd"/></svg>