<svg fill="none" height="90" viewBox="0 0 105 90" width="105" xmlns="http://www.w3.org/2000/svg"><g fill="#fff" stroke="#fff" stroke-width="1.74474"><path d="m50.1449 53.9492c-5.3589 0-9.8916 0-9.8916 0l3.3705 11.0744-6.6991 18.02c-.8674 2.3336.4391 4.8871 2.9182 5.7037 2.4798.8165 5.1925-.414 6.0598-2.7468l7.1982-19.3632c.3248-.874.3538-1.8211.0829-2.7112z"/><path d="m62.7313 53.9495c-2.956 0-6.9278 0-10.7102 0l5.5159 10.1787-.715 20.2464c-.0872 2.4708 1.9703 4.5404 4.5951 4.6226.0539.0017.1074.0026.1609.0026 2.5534 0 4.665-1.9076 4.7503-4.3277l.7557-21.4006c.0268-.7572-.1509-1.5078-.5166-2.1827z"/><path d="m58.7846 16.3004c4.4889 0 8.1278-3.4251 8.1278-7.65019 0-4.2251-3.6389-7.65021-8.1278-7.65021-4.4888 0-8.1277 3.42511-8.1277 7.65021 0 4.22509 3.6389 7.65019 8.1277 7.65019z"/><path d="m23.2183 50.5263h31.0341l-6.7961-3.1003c-.6203-.2829-1.1884-.6374-1.6981-1.0487h-22.5399c-9.1319 0-16.56152 6.9929-16.56152 15.5884v22.8847c-1.81102 0-1.66478 0-3.45288 0-1.21708 0-2.2039.9288-2.2039 2.0744 0 1.1455.98682 2.0744 2.2039 2.0744h11.3138c1.2171 0 2.2039-.9289 2.2039-2.0744 0-1.1456-.9868-2.0744-2.2039-2.0744-1.8045 0-1.6646 0-3.4529 0v-22.8843c.0002-6.308 5.4521-11.4398 12.1535-11.4398z"/><path d="m67.1292 43.9359-12.5325-5.7172-2.0639-14.2813 5.077 11.6129 3.9936 1.822 1.9446-12.0363c.4039-2.4994-1.4215-4.8334-4.0767-5.2136l-10.9206-1.5631c-2.6552-.3802-5.1352 1.3379-5.5391 3.8371l-3.3215 20.5585h3.6778c-.3262-.987-.35-1.6199-.3064-2.0482l1.5684-15.4233 2.2791 15.77c.182 1.2576 1.0201 2.3459 2.2334 2.8995 8.9308 4.0741 3.7824 1.7253 14.4748 6.6033 1.8274.8339 4.0808.2561 5.1783-1.4179 1.2614-1.9253.4675-4.4285-1.6663-5.4024z"/><path d="m101.796 84.8511c-1.9684 0-1.619 0-3.553 0v-22.8847c0-8.5955-7.4293-15.5883-16.5615-15.5883h-8.4885c.1941 1.3724-.0157 2.8095-.6905 4.149h9.179c6.7016 0 12.1537 5.1318 12.1537 11.4396v22.8846c-2.1017 0-2.5687 0-2.6552 0-.0123 0-.0175 0-.0179 0-.0479 0-.208 0-.6798 0-1.2171 0-2.2039.9288-2.2039 2.0744s.9868 2.0744 2.2039 2.0744h11.3137c1.217 0 2.204-.9288 2.204-2.0744 0-1.1458-.987-2.0746-2.204-2.0746z"/></g></svg>