<svg fill="none" height="95" viewBox="0 0 98 95" width="98" xmlns="http://www.w3.org/2000/svg"><path d="m15.7836 53.4004c0-3.4512 2.9391-6.2715 6.5355-6.2715 3.5965 0 6.5356 2.7832 6.5356 6.2715 0 3.4512-2.9391 6.2715-6.5356 6.2715-3.5964 0-6.5355-2.7832-6.5355-6.2715zm15.8941-3.8223v18.1094h52.4778v-13.248c-.0387-2.7461-2.359-4.8985-5.2207-4.8985zm-6.0328 18.1094c1.7789 0 3.2098-1.373 3.2098-3.0801 0-1.707-1.4309-3.0801-3.2098-3.0801h-9.2812c-1.7789 0-3.2098 1.3731-3.2098 3.0801 0 1.7071 1.4309 3.0801 3.2098 3.0801zm61.643 13.0254v13.8047h8.5078v-43.752c0-2.2636-1.8949-4.082-4.2539-4.082s-4.2539 1.8184-4.2539 4.082v20.0762h-76.4543v-28.3516c0-2.2636-2.04961-4.082-4.4086-4.082-2.35898 0-4.17656 1.8184-4.17656 4.082v52.0274h8.58516v-13.8047zm-26.993-79.970712c-2.823 0-6.8062 1.076172-9.6679 3.859372l3.4031 5.97464c1.4695-1.78128 3.7125-2.93167 6.2648-2.93167 2.591 0 4.8727 1.15039 6.3422 2.96877l3.3645-6.16018c-2.5137-2.59765-6.9996-3.710932-9.7067-3.710932zm-.9668 4.416012h-1.8949v-1.85547h1.8949v-1.81835h1.8949v1.81835h1.895v1.81836h-1.895v1.81836h-1.8949zm7.077 10.5391c0-3.2657-2.7457-5.90042-6.1488-5.90042-3.4032 0-6.1489 2.63472-6.1489 5.90042 0 3.2656 2.7457 5.9004 6.1489 5.9004 3.4031 0 6.1488-2.6348 6.1488-5.9004zm-12.027 7.6074c-4.2926.0371-6.7676 3.3769-7.3476 5.2695l-5.2207 16.4766h5.298l3.8672-12.6543h2.7457l-3.8285 12.6172h20.8441l-3.8285-12.6172h2.7457l3.9445 12.6543h5.2207l-5.2593-16.4766c-.5414-1.8554-2.9778-5.1582-7.193-5.2324zm-39.1359 3.7851c7.541 0 13.6512-5.8632 13.6512-13.0996 0-7.2734-6.1102-13.136684-13.6512-13.136684-7.54103 0-13.65118 5.863284-13.65118 13.099584 0 7.2364 6.11015 13.1367 13.65118 13.1367zm0-3.2656c-5.68478 0-10.28673-4.416-10.28673-9.8711 0-5.41794 4.60195-9.87107 10.28673-9.87107 5.6848 0 10.2867 4.45313 10.2867 9.87107 0 5.4551-4.6019 9.8711-10.2867 9.8711zm6.8062-11.207c.5028-.2227.7348-.8164.5028-1.2988-.2321-.4825-.8508-.7051-1.3535-.4825l-5.2594 2.375v-5.90035c0-.55664-.4641-1.00196-1.0442-1.00196-.58 0-1.0441.44532-1.0441 1.00196v7.60745c.0387.2597.1934.5195.4641.6679.3093.1856.6961.2227.9668.0743z" fill="#fff" stroke="#fff" stroke-width="3.125"/></svg>