<svg fill="none" height="91" viewBox="0 0 97 91" width="97" xmlns="http://www.w3.org/2000/svg"><g fill="#fff"><path d="m46.7446 18.937c2.3673.0021 4.6384-.9938 6.3139-2.7687 1.6755-1.775 2.6181-4.1836 2.6205-6.69604-.001-1.24396-.2329-2.47553-.6825-3.62434-.4496-1.14882-1.108-2.19235-1.9377-3.071s-1.8144-1.57518-2.8978-2.049809-2.2444-.71805182-3.4164-.7163601c-4.9358 0-8.936 4.2358691-8.936 9.4615091.0032 2.51254.9463 4.92084 2.622 6.69564 1.6756 1.7748 3.9467 2.7708 6.314 2.7691z"/><path d="m73.9679 82.921h-71.22985c-2.00615 0-1.799924 1.6737-1.799924 1.6737v2.7858s-.181964 3.6195 3.320844 3.6195h89.18813c3.5256 0 3.3345-3.5358 3.3345-3.5358v-7.7153s-.2987-2.4398-3.0024-2.4398h-8.6918c-2.9797 0-5.4423 5.6103-11.118 5.6103z"/><path d="m80.8947 65.8261c0 4.7026 3.6059 8.5217 8.0488 8.5217 4.4415 0 8.0565-3.8207 8.0565-8.5217 0-4.7203-3.615-8.5248-8.0565-8.5248-1.0561-.0021-2.1023.2168-3.0786.6442-.9764.4275-1.8637 1.0551-2.6113 1.8469s-1.3408 1.7322-1.7455 2.7676c-.4048 1.0353-.6132 2.1452-.6134 3.2661z"/><path d="m54.5842 49.5667c-.2676.8669-.7159 1.6585-1.3116 2.3161s-1.3234 1.1642-2.129 1.482l-7.1679 2.8212 2.6446 2.7859h12.1006l-.0076-19.6585-4.0502 10.1342c-.0198.0483-.0561.0756-.0804.1191z"/><path d="m71.9633 63.6422h-25.0201l-6.0321-6.2508-4.1988 1.6415c-3.1146 1.1829-6.9071-.6228-8.0762-3.9075-.6884-2.0391-.5929-4.3164.5565-5.9756-.514-.0242-15.1742 0-15.1742 0-.5788-.0019-1.1523.1172-1.6878.3506-.5354.2334-1.0222.5764-1.4327 1.0095s-.7365.9478-.95954 1.5147c-.22302.5669-.33862 1.1748-.34021 1.7891 0 2.5863 1.98185 4.6077 4.42025 4.6077h14.9256l5.9183 9.5098-30.55627 2.6055c-1.05757.2563-1.98907.9173-2.61648 1.8565s-.906739 2.0909-.784597 3.2349c.122147 1.144.637187 2.2001 1.446707 2.9665.80951.7664 1.85673 1.1893 2.94152 1.188l34.28352.0048c-.6193-1.0507-.9496-2.2642-.9538-3.5036.0012-1.7808.6683-3.4882 1.8547-4.7474 1.1865-1.2592 2.7953-1.9672 4.4731-1.9685h13.7171l11.1165-2.4639.6171 3.1334-11.4228 2.5315h-14.0294c-.8769-.0093-1.7214.3514-2.3478 1.0028-.6263.6515-.9831 1.5404-.992 2.4711-.0088.9307.331 1.827.9448 2.4918.6139.6647 1.4514 1.0434 2.3283 1.0528l27.1399.0032c2.0104-.0093 3.9355-.8634 5.3541-2.3753 1.4186-1.512 2.2152-3.5587 2.2156-5.6924-.0002-1.0626-.1977-2.1147-.5814-3.0961-.3836-.9814-.9457-1.873-1.6543-2.6236-.7085-.7507-1.5496-1.3457-2.475-1.7511s-1.917-.6116-2.9181-.6099z"/><path d="m36.1831 56.1006c-.8493.3941-1.8112.4146-2.6748.0571s-1.5583-1.0638-1.9319-1.9642c-.1855-.4465-.286-.9275-.2959-1.4154-.0098-.4879.0712-.973.2384-1.4276s.4174-.8696.7361-1.2213c.3188-.3517.6998-.6332 1.1213-.8282l12.739-5.0759 3.9365-9.9653-2.5657-1.0058-3.3466 8.5329-9.6972 3.79v-10.4319l-9.4788 10.9872-10.7268-.0113s18.7711-21.8392 19.358-22.4926c.7779-.8192 2.5566-2.1775 5.9108-2.1775h12.0536c6.8479 0 8.1656 7.2454 6.7645 10.9953l-6.3036 16.2257c-.1918.4659-.4705.8859-.8191 1.2346-.3487.3488-.7602.6191-1.2098.7948l-13.808 5.3962z"/></g></svg>