<svg fill="none" height="64" viewBox="0 0 32 32" width="64" xmlns="http://www.w3.org/2000/svg" xmlns:xlink="http://www.w3.org/1999/xlink"><clipPath id="a"><path d="m0 0h32v32h-32z"/></clipPath><g clip-path="url(#a)"><path d="m28.999 8.416 1.001.584c.562.328 1 .447 1 1v20c0 .553-.447 1-1 1h-28c-.553 0-1-.447-1-1v-20c0-.336.359-.625 1-1l.981-.622m1.019 3.622 11 11c.834.834 1.167.833 2 0l11-11m-18.5 10.5-5.5 5.5m24 0-5.5-5.5m-16.5-8.5v-12c0-.553.447-1 1-1h18c.553 0 1 .447 1 1v12m-15-6h10m-10 4h10" stroke="#d33834" stroke-linecap="round" stroke-linejoin="round" stroke-width="2"/></g></svg>