<svg fill="none" height="22" viewBox="0 0 22 22" width="22" xmlns="http://www.w3.org/2000/svg"><path d="m4.88281 22v-14.59961h-4.541013v14.59961zm-2.29492-16.55273c1.46484 0 2.63672-1.22071 2.63672-2.68555 0-1.41602-1.17188-2.587892-2.63672-2.587892-1.41601 0-2.58789 1.171872-2.58789 2.587892 0 1.46484 1.17188 2.68555 2.58789 2.68555zm19.23831 16.55273h.0488v-8.0078c0-3.9063-.8789-6.93361-5.4688-6.93361-2.1972 0-3.6621 1.22071-4.2968 2.34375h-.0489v-2.00195h-4.34566v14.59961h4.54106v-7.2266c0-1.9043.3418-3.7109 2.6855-3.7109 2.3438 0 2.3926 2.1484 2.3926 3.8574v7.0801z" fill="#fff"/></svg>