<svg fill="none" height="23" viewBox="0 0 18 23" width="18" xmlns="http://www.w3.org/2000/svg"><g fill="#000"><path d="m8.83608 21.7221h.00001l-.00386-.0029h-.00001l-.00014-.0001-.00043-.0004-.00322-.0024-.01466-.0111c-.01336-.0103-.03381-.026-.06089-.0472-.05417-.0423-.1348-.1063-.23813-.191-.2067-.1693-.50394-.4211-.86153-.7477-.7158-.6535-1.67016-1.6034-2.62358-2.787-1.91561-2.3781-3.78149-5.6426-3.78149-9.31082.00001-4.06199 3.45768-7.40554 7.74927-7.40554 4.29198 0 7.75478 3.34398 7.75478 7.40555 0 3.66821-1.8659 6.93261-3.7815 9.31081-.9534 1.1836-1.9078 2.1335-2.6235 2.787-.35764.3266-.65488.5784-.86158.7477-.10333.0847-.18397.1487-.23813.191-.0134.0105-.02518.0196-.03528.0274l-.04349.0333-.00057.0005h-.00002l-.00384.0029c-.04413.0337-.10193.0541-.16411.0541-.06217 0-.11998-.0204-.1641-.0541zm-.14947-.8127.31638.2585.31635-.2585c.42379-.3463 2.14616-1.7826 3.76576-3.9363 1.6148-2.1475 3.1668-5.0603 3.1667-8.35162 0-3.8776-3.2623-6.96768-7.25438-6.96768-3.99268 0-7.2489 3.0906-7.2489 6.96768 0 3.29272 1.55445 6.20652 3.17118 8.35402 1.62146 2.1538 3.34526 3.5895 3.76691 3.9339z" stroke="#000"/><path d="m8.99741 5.02948c-2.06218 0-3.74814 1.61573-3.74815 3.59198-.00001 1.97624 1.68596 3.59724 3.74815 3.59724s3.75369-1.621 3.75369-3.59724c0-1.97625-1.6915-3.59198-3.75369-3.59198zm0 1.43785c1.25149 0 2.25329.95475 2.25329 2.15413s-1.0018 2.15944-2.25329 2.15944c-1.25153 0-2.24779-.96006-2.24778-2.15944 0-1.19938.99626-2.15413 2.24778-2.15413z"/></g></svg>