<svg fill="none" height="16" viewBox="0 0 16 16" width="16" xmlns="http://www.w3.org/2000/svg"><path d="m13.5738 15.4537h-.2012c-2.2673-.2466-4.44563-1.0197-6.36127-2.2575-1.77959-1.1334-3.29054-2.6413-4.4275-4.41871-1.24061-1.92063-2.013797-4.1053-2.257502-6.37875-.02786-.27116-.00035-.54516.080877-.80537.081217-.26021.214453-.50121.391623-.708376.172323-.209939.385022-.383163.625502-.509416.24048-.126245.50384-.202957.7745-.225584h2.275c.49273.000499.96904.177161 1.34291.498085.37388.320924.62068.764961.69584 1.251911.08312.62552.2387 1.23924.46375 1.82875.13685.37046.16511.77231.08146 1.15828-.08374.38596-.27589.74-.55396 1.02047l-.53375.53375c.84035 1.32667 1.96761 2.44798 3.29875 3.28125l.53375-.525c.28042-.27808.63452-.47023 1.02052-.55397.386-.08365.7878-.05538 1.1582.08147.5902.22295 1.2037.37852 1.8288.46375.4952.07446.9463.32707 1.2686.7105.3221.38346.4934.87136.4814 1.37196v2.1c0 .5462-.2164 1.0702-.6018 1.4572-.3853.387-.9083.6056-1.4545.6078zm-9.09997-13.99996h-2.09125c-.10268.00679-.20292.03433-.29466.08095s-.17307.11136-.23909.1903c-.06424.07395-.11288.16014-.14295.25337s-.04098.19158-.03205.28913c.21218 2.06219.90442 4.046 2.02125 5.7925 1.02956 1.61586 2.4004 2.98671 4.01625 4.01621 1.74764 1.1286 3.73367 1.8356 5.80127 2.065.1075.0061.2151-.0102.316-.0478.1009-.0377.193-.0959.2702-.1709.1393-.1428.2178-.3342.2188-.5338v-2.0912c.0039-.1841-.0598-.3633-.1791-.5037-.1194-.1402-.2861-.2319-.4684-.2576-.7229-.0972-1.4329-.2732-2.1175-.525-.1349-.05036-.2812-.06156-.4222-.03208-.141.02938-.2706.09818-.3741.19838l-.87497.875c-.10246.0999-.2345.1641-.37634.183-.14192.0189-.28604-.0085-.41116-.078-1.86708-1.0551-3.41253-2.59745-4.47125-4.46251-.07247-.12425-.10148-.26915-.08247-.41178.01901-.14254.08497-.27477.18747-.37572l.875-.875c.10034-.10148.16937-.22968.19885-.36932.02948-.13963.01817-.2848-.0326-.41818-.25271-.68426-.42878-1.39443-.525-2.1175-.02171-.18788-.11259-.36097-.25493-.48552-.14235-.12455-.32596-.19165-.51507-.18823z" fill="#000"/></svg>