<svg fill="none" height="25" viewBox="0 0 19 25" width="19" xmlns="http://www.w3.org/2000/svg"><path d="m9.96094.466797c-5.0293 0-9.96094 3.320313-9.96094 8.740233 0 3.41797 1.9043 5.37107 3.07617 5.37107.48828 0 .78125-1.3183.78125-1.709 0-.4394-1.17187-1.416-1.17187-3.32027 0-3.90625 2.97851-6.68945 6.83593-6.68945 3.36912 0 5.81052 1.90429 5.81052 5.37109 0 2.58793-1.0254 7.42183-4.3945 7.42183-1.2207 0-2.29492-.8789-2.29492-2.0996 0-1.8554 1.31836-3.66208 1.31836-5.56637 0-3.22266-4.58985-2.63672-4.58985 1.26953 0 .83004.09766 1.70894.48829 2.49024-.6836 2.8809-2.05079 7.2266-2.05079 10.2051 0 .9277.09766 1.8066.19532 2.7343.14648.1954.09765.1954.34179.0977 2.44141-3.3691 2.39258-4.0527 3.4668-8.4473.63477 1.1231 2.14844 1.7579 3.418 1.7579 5.1757 0 7.5195-5.0782 7.5195-9.61919 0-4.83399-4.1992-8.007813-8.78906-8.007813z" fill="#fff"/></svg>