<svg height="50" viewBox="0 0 24 24" width="50" xmlns="http://www.w3.org/2000/svg"><g fill="#fff"><path d="m10.77 18.3c-1.4893 0-2.94515-.4416-4.18345-1.269s-2.20344-2.0035-2.77337-3.3794-.71905-2.89-.4285-4.35064c.29055-1.46067 1.00771-2.80239 2.0608-3.85548s2.39481-1.77025 3.85548-2.0608c1.46064-.29055 2.97474-.14143 4.35064.4285s2.552 1.53507 3.3794 2.77337 1.269 2.69415 1.269 4.18345c0 .9888-.1948 1.968-.5732 2.8816s-.9331 1.7437-1.6323 2.4429-1.5293 1.2539-2.4429 1.6323-1.8928.5732-2.8816.5732zm0-13.55001c-1.18669 0-2.34673.3519-3.33343 1.01119-.98669.65928-1.75573 1.59636-2.20985 2.69271-.45413 1.09636-.57295 2.30271-.34144 3.46661s.80296 2.233 1.64207 3.0721c.83912.8391 1.90821 1.4106 3.0721 1.6421 1.16385.2315 2.37025.1127 3.46665-.3414 1.0963-.4542 2.0334-1.2232 2.6927-2.2099s1.0112-2.1467 1.0112-3.3334c0-1.59131-.6321-3.11743-1.7574-4.24265-1.1252-1.12522-2.6513-1.75736-4.2426-1.75736z"/><path d="m20 20.75c-.0985.0004-.1962-.0188-.2872-.0566-.091-.0377-.1736-.0933-.2428-.1634l-4.13-4.13c-.1325-.1422-.2046-.3303-.2012-.5246s.0822-.3796.2196-.5171c.1374-.1374.3228-.2161.5171-.2195s.3823.0687.5245.2012l4.13 4.13c.1404.1406.2193.3312.2193.53 0 .1987-.0789.3893-.2193.53-.0692.0701-.1518.1257-.2428.1634-.091.0378-.1887.057-.2872.0566z"/></g></svg>