<svg fill="none" height="18" viewBox="0 0 18 18" width="18" xmlns="http://www.w3.org/2000/svg"><path clip-rule="evenodd" d="m10.3837 9.32518 2.3102 1.33382c.2255.1302.2985.426.1715.646-.1308.2265-.4131.3084-.6452.1744l-2.34935-1.3564c-.24054.1868-.54271.2981-.87085.2981-.78483 0-1.42105-.63627-1.42105-1.4211 0-.61873.39543-1.14511.94737-1.34019v-4.34078c0-.2634.21972-.47692.47368-.47692.26161 0 .47368.22064.47368.47692v4.34078c.55192.19508.94742.72146.94742 1.34019 0 .11188-.013.22075-.0374.32518zm-1.3837 8.67482c4.9706 0 9-4.0294 9-9 0-4.97056-4.0294-9-9-9-4.97056 0-9 4.02944-9 9 0 4.9706 4.02944 9 9 9zm0-.9474c4.4473 0 8.0526-3.6053 8.0526-8.0526 0-4.44735-3.6053-8.052632-8.0526-8.052632-4.44735 0-8.052632 3.605282-8.052632 8.052632 0 4.4473 3.605282 8.0526 8.052632 8.0526z" fill="#000" fill-rule="evenodd"/></svg>