<svg height="19" viewBox="0 0 22 19" width="22" xmlns="http://www.w3.org/2000/svg"><path d="m19.7227 5.28125c.8593-.64453 1.6328-1.41797 2.2343-2.32031-.7734.34375-1.6758.60156-2.5781.6875.9453-.5586 1.6328-1.41797 1.9766-2.49219-.8594.51563-1.8477.90234-2.836 1.11719-.8593-.90235-2.0195-1.417971-3.3086-1.417971-2.4921 0-4.5117 2.019531-4.5117 4.511721 0 .34375.043.6875.1289 1.03125-3.73826-.21485-7.08982-2.01953-9.32419-4.72656-.38672.64453-.601566 1.41796-.601566 2.27734 0 1.54687.773436 2.92187 2.019536 3.73828-.73047-.04297-1.46094-.21484-2.062505-.55859v.04297c0 2.1914 1.546875 3.99612 3.609375 4.42582-.34375.0859-.77344.1718-1.16016.1718-.30078 0-.55859-.0429-.85937-.0859.55859 1.8047 2.23437 3.0937 4.21094 3.1367-1.54688 1.2031-3.48047 1.9336-5.58594 1.9336-.38672 0-.73047-.043-1.07422-.0859 1.97656 1.289 4.33984 2.0195 6.91797 2.0195 8.29293 0 12.80473-6.832 12.80473-12.80469 0-.21484 0-.38672 0-.60156z" fill="#fff"/></svg>